<svg id="cardano_ada_crypto_icon_264376" xmlns="http://www.w3.org/2000/svg" width="339.99" height="339.99" viewBox="0 0 339.99 339.99">
  <path id="Path_1" data-name="Path 1" d="M339.99,0V339.99H0V0ZM178.4,329.479l-.156.028-1.006.5-.283.057-.2-.057-1.006-.5a.29.29,0,0,0-.34.071l-.057.142-.241,6.063.071.283.142.184,1.473,1.048.212.057.17-.057,1.473-1.048.17-.227.057-.241-.241-6.049A.3.3,0,0,0,178.4,329.479Zm3.754-1.6-.184.028-2.621,1.317-.142.142-.043.156.255,6.091.071.17.113.1,2.847,1.317a.359.359,0,0,0,.411-.113l.057-.2-.482-8.7a.381.381,0,0,0-.283-.312Zm-10.129.028a.326.326,0,0,0-.383.085l-.085.2-.482,8.7a.353.353,0,0,0,.241.34l.213-.028,2.847-1.317.142-.113.057-.156.241-6.091-.043-.17-.142-.142-2.607-1.3Z" fill="none" fill-rule="evenodd"/>
  <path id="Path_2" data-name="Path 2" d="M136.079,15.666a14.166,14.166,0,1,1,14.166,14.166A14.166,14.166,0,0,1,136.079,15.666Zm14.166,14.166a21.249,21.249,0,1,0,21.249,21.249A21.249,21.249,0,0,0,150.246,29.832Zm55.022-3.216a14.166,14.166,0,1,1,5.185,19.351,14.166,14.166,0,0,1-5.185-19.351ZM75.873,21.432a14.166,14.166,0,1,1-5.185,19.351,14.166,14.166,0,0,1,5.185-19.351Zm129.48,43.675A21.249,21.249,0,1,1,206.486,96.2a28.407,28.407,0,0,1-13.26,29.225,28.332,28.332,0,0,1,39.07,12.211,21.249,21.249,0,1,1,0,25.2,28.332,28.332,0,0,1-39.1,12.211,28.219,28.219,0,0,1,13.26,29.239,21.249,21.249,0,1,1-7.281,14.492,28.361,28.361,0,0,1-48.93-18.926,28.333,28.333,0,0,1-48.93,18.926,21.249,21.249,0,1,1-7.3-14.506,28.324,28.324,0,0,1,13.274-29.225,28.333,28.333,0,0,1-39.1-12.2,21.249,21.249,0,1,1,0-25.2,28.332,28.332,0,0,1,39.085-12.211A28.348,28.348,0,0,1,94.02,96.216a21.249,21.249,0,1,1,7.3-14.506,28.333,28.333,0,0,1,48.93,18.926,28.332,28.332,0,0,1,48.93-18.926,21.211,21.211,0,0,1,6.162-16.6Zm-55.107,36.549a28.3,28.3,0,0,1-42.074,24.3,28.318,28.318,0,0,1-.014,48.59,28.318,28.318,0,0,1,42.088,24.3,28.318,28.318,0,0,1,42.074-24.3,28.318,28.318,0,0,1,0-48.59,28.318,28.318,0,0,1-42.074-24.3ZM29.832,150.246a14.166,14.166,0,1,0-14.166,14.166A14.166,14.166,0,0,0,29.832,150.246Zm-8.4-74.373a14.166,14.166,0,1,1,5.185,19.351,14.166,14.166,0,0,1-5.185-19.351Zm238.276-5.185a14.166,14.166,0,1,1-5.185,19.351,14.166,14.166,0,0,1,5.185-19.351Zm10.951,79.558a14.166,14.166,0,1,1,14.166,14.166A14.166,14.166,0,0,1,270.659,150.246ZM26.617,205.267a14.166,14.166,0,1,1-5.185,19.351,14.166,14.166,0,0,1,5.185-19.351Zm227.907,5.185a14.166,14.166,0,1,1,5.185,19.351,14.166,14.166,0,0,1-5.185-19.351ZM129,249.409a21.249,21.249,0,1,1,21.249,21.249A21.249,21.249,0,0,1,129,249.409Zm21.249,21.249a14.166,14.166,0,1,0,14.166,14.166A14.166,14.166,0,0,0,150.246,270.659ZM70.688,259.708a14.166,14.166,0,1,1,5.185,19.351,14.166,14.166,0,0,1-5.185-19.351Zm139.764-5.185a14.172,14.172,0,1,1-5.192,19.358A14.172,14.172,0,0,1,210.452,254.523Z" transform="translate(19.749 19.749)" fill="#f5c645" fill-rule="evenodd"/>
</svg>
